<svg xmlns="http://www.w3.org/2000/svg" xmlns:xlink="http://www.w3.org/1999/xlink" width="240" zoomAndPan="magnify" viewBox="0 0 180 179.999997" height="240" preserveAspectRatio="xMidYMid meet" version="1.0"><defs><clipPath id="9f736cca5b"><path d="M 24.074219 0 L 156.074219 0 L 156.074219 180 L 24.074219 180 Z M 24.074219 0 " clip-rule="nonzero"/></clipPath></defs><g clip-path="url(#9f736cca5b)"><path fill="#000000" d="M 37.890625 3.550781 C 32.25 3.550781 27.660156 8.136719 27.660156 13.769531 L 27.660156 166.230469 C 27.660156 171.863281 32.25 176.449219 37.890625 176.449219 L 142.242188 176.449219 C 147.882812 176.449219 152.472656 171.863281 152.472656 166.230469 L 152.472656 13.769531 C 152.472656 8.136719 147.882812 3.550781 142.242188 3.550781 Z M 142.242188 180 L 37.890625 180 C 30.289062 180 24.101562 173.824219 24.101562 166.230469 L 24.101562 13.769531 C 24.101562 6.175781 30.289062 0 37.890625 0 L 142.242188 0 C 149.84375 0 156.027344 6.175781 156.027344 13.769531 L 156.027344 166.230469 C 156.027344 173.824219 149.84375 180 142.242188 180 " fill-opacity="1" fill-rule="nonzero"/></g><path fill="#000000" d="M 41.828125 57.167969 L 138.304688 57.167969 L 138.304688 17.589844 L 41.828125 17.589844 Z M 140.082031 60.71875 L 40.050781 60.71875 C 39.066406 60.71875 38.269531 59.925781 38.269531 58.941406 L 38.269531 15.8125 C 38.269531 14.832031 39.066406 14.035156 40.050781 14.035156 L 140.082031 14.035156 C 141.0625 14.035156 141.859375 14.832031 141.859375 15.8125 L 141.859375 58.941406 C 141.859375 59.925781 141.0625 60.71875 140.082031 60.71875 " fill-opacity="1" fill-rule="nonzero"/><path fill="#000000" d="M 41.828125 98.175781 L 65.546875 98.175781 L 65.546875 77.972656 L 41.828125 77.972656 Z M 67.324219 101.726562 L 40.050781 101.726562 C 39.066406 101.726562 38.269531 100.933594 38.269531 99.953125 L 38.269531 76.195312 C 38.269531 75.214844 39.066406 74.417969 40.050781 74.417969 L 67.324219 74.417969 C 68.304688 74.417969 69.101562 75.214844 69.101562 76.195312 L 69.101562 99.953125 C 69.101562 100.933594 68.304688 101.726562 67.324219 101.726562 " fill-opacity="1" fill-rule="nonzero"/><path fill="#000000" d="M 78.007812 98.175781 L 101.722656 98.175781 L 101.722656 77.972656 L 78.007812 77.972656 Z M 103.503906 101.726562 L 76.230469 101.726562 C 75.246094 101.726562 74.449219 100.933594 74.449219 99.953125 L 74.449219 76.195312 C 74.449219 75.214844 75.246094 74.417969 76.230469 74.417969 L 103.503906 74.417969 C 104.484375 74.417969 105.28125 75.214844 105.28125 76.195312 L 105.28125 99.953125 C 105.28125 100.933594 104.484375 101.726562 103.503906 101.726562 " fill-opacity="1" fill-rule="nonzero"/><path fill="#000000" d="M 114.1875 98.175781 L 137.90625 98.175781 L 137.90625 77.972656 L 114.1875 77.972656 Z M 139.683594 101.726562 L 112.410156 101.726562 C 111.425781 101.726562 110.632812 100.933594 110.632812 99.953125 L 110.632812 76.195312 C 110.632812 75.214844 111.425781 74.417969 112.410156 74.417969 L 139.683594 74.417969 C 140.664062 74.417969 141.460938 75.214844 141.460938 76.195312 L 141.460938 99.953125 C 141.460938 100.933594 140.664062 101.726562 139.683594 101.726562 " fill-opacity="1" fill-rule="nonzero"/><path fill="#000000" d="M 41.828125 130.960938 L 65.546875 130.960938 L 65.546875 110.753906 L 41.828125 110.753906 Z M 67.324219 134.511719 L 40.050781 134.511719 C 39.066406 134.511719 38.269531 133.714844 38.269531 132.734375 L 38.269531 108.976562 C 38.269531 107.996094 39.066406 107.199219 40.050781 107.199219 L 67.324219 107.199219 C 68.304688 107.199219 69.101562 107.996094 69.101562 108.976562 L 69.101562 132.734375 C 69.101562 133.714844 68.304688 134.511719 67.324219 134.511719 " fill-opacity="1" fill-rule="nonzero"/><path fill="#000000" d="M 78.007812 130.960938 L 101.722656 130.960938 L 101.722656 110.753906 L 78.007812 110.753906 Z M 103.503906 134.511719 L 76.230469 134.511719 C 75.246094 134.511719 74.449219 133.714844 74.449219 132.734375 L 74.449219 108.976562 C 74.449219 107.996094 75.246094 107.199219 76.230469 107.199219 L 103.503906 107.199219 C 104.484375 107.199219 105.28125 107.996094 105.28125 108.976562 L 105.28125 132.734375 C 105.28125 133.714844 104.484375 134.511719 103.503906 134.511719 " fill-opacity="1" fill-rule="nonzero"/><path fill="#000000" d="M 41.828125 163.742188 L 65.546875 163.742188 L 65.546875 143.535156 L 41.828125 143.535156 Z M 67.324219 167.292969 L 40.050781 167.292969 C 39.066406 167.292969 38.269531 166.496094 38.269531 165.515625 L 38.269531 141.757812 C 38.269531 140.777344 39.066406 139.980469 40.050781 139.980469 L 67.324219 139.980469 C 68.304688 139.980469 69.101562 140.777344 69.101562 141.757812 L 69.101562 165.515625 C 69.101562 166.496094 68.304688 167.292969 67.324219 167.292969 " fill-opacity="1" fill-rule="nonzero"/><path fill="#000000" d="M 78.007812 163.742188 L 101.722656 163.742188 L 101.722656 143.535156 L 78.007812 143.535156 Z M 103.503906 167.292969 L 76.230469 167.292969 C 75.246094 167.292969 74.449219 166.496094 74.449219 165.515625 L 74.449219 141.757812 C 74.449219 140.777344 75.246094 139.980469 76.230469 139.980469 L 103.503906 139.980469 C 104.484375 139.980469 105.28125 140.777344 105.28125 141.757812 L 105.28125 165.515625 C 105.28125 166.496094 104.484375 167.292969 103.503906 167.292969 " fill-opacity="1" fill-rule="nonzero"/><path fill="#000000" d="M 114.1875 163.742188 L 137.90625 163.742188 L 137.90625 110.753906 L 114.1875 110.753906 Z M 139.683594 167.292969 L 112.410156 167.292969 C 111.425781 167.292969 110.632812 166.496094 110.632812 165.515625 L 110.632812 108.976562 C 110.632812 107.996094 111.425781 107.199219 112.410156 107.199219 L 139.683594 107.199219 C 140.664062 107.199219 141.460938 107.996094 141.460938 108.976562 L 141.460938 165.515625 C 141.460938 166.496094 140.664062 167.292969 139.683594 167.292969 " fill-opacity="1" fill-rule="nonzero"/><path fill="#000000" d="M 126.046875 145.664062 C 125.0625 145.664062 124.265625 144.867188 124.265625 143.886719 L 124.265625 130.609375 C 124.265625 129.628906 125.0625 128.832031 126.046875 128.832031 C 127.027344 128.832031 127.824219 129.628906 127.824219 130.609375 L 127.824219 143.886719 C 127.824219 144.867188 127.027344 145.664062 126.046875 145.664062 " fill-opacity="1" fill-rule="nonzero"/><path fill="#000000" d="M 132.691406 139.023438 L 119.398438 139.023438 C 118.417969 139.023438 117.621094 138.226562 117.621094 137.246094 C 117.621094 136.265625 118.417969 135.46875 119.398438 135.46875 L 132.691406 135.46875 C 133.675781 135.46875 134.472656 136.265625 134.472656 137.246094 C 134.472656 138.226562 133.675781 139.023438 132.691406 139.023438 " fill-opacity="1" fill-rule="nonzero"/></svg>